RBDS010runT25_grf
version=1
nRows=27
nColumns=19
inDegrees=no
endheader
time	ground_force_r_vx	ground_force_r_vy	ground_force_r_vz	ground_force_r_px	ground_force_r_py	ground_force_r_pz	ground_force_r_mx	ground_force_r_my	ground_force_r_mz	ground_force_l_vx	ground_force_l_vy	ground_force_l_vz	ground_force_l_px	ground_force_l_py	ground_force_l_pz	ground_force_l_mx	ground_force_l_my	ground_force_l_mz
      7.49900000	      0.00000000	      0.00000000	      0.00000000	      0.00000000	      0.00000000	      0.00000000	      0.00000000	      0.00000000	      0.00000000	   -145.51083145	   1109.60935206	     -8.18950598	      2.39387087	      0.00000000	      0.94726968	     -0.00000000	     20.87564760	      0.00000000
      7.50000000	      0.00000000	      0.00000000	      0.00000000	      0.00000000	      0.00000000	      0.00000000	      0.00000000	      0.00000000	      0.00000000	   -146.44347457	   1121.24774546	     -8.16518510	      2.39188763	      0.00000000	      0.94755436	     -0.00000000	     20.98107728	      0.00000000
      7.50100000	      0.00000000	      0.00000000	      0.00000000	      0.00000000	      0.00000000	      0.00000000	      0.00000000	      0.00000000	      0.00000000	   -147.06058589	   1132.00125031	     -8.06328022	      2.38987773	      0.00000000	      0.94776200	     -0.00000000	     21.10571665	      0.00000000
      7.50200000	      0.00000000	      0.00000000	      0.00000000	      0.00000000	      0.00000000	      0.00000000	      0.00000000	      0.00000000	      0.00000000	   -147.67769721	   1142.75475516	     -7.96137534	      2.38786783	      0.00000000	      0.94796965	     -0.00000000	     21.23035601	      0.00000000
      7.50300000	      0.00000000	      0.00000000	      0.00000000	      0.00000000	      0.00000000	      0.00000000	      0.00000000	      0.00000000	      0.00000000	   -148.29480853	   1153.50826001	     -7.85947045	      2.38585793	      0.00000000	      0.94817729	     -0.00000000	     21.35499538	      0.00000000
      7.50400000	      0.00000000	      0.00000000	      0.00000000	      0.00000000	      0.00000000	      0.00000000	      0.00000000	      0.00000000	      0.00000000	   -148.68878007	   1163.69574816	     -7.70074656	      2.38383367	      0.00000000	      0.94833856	     -0.00000000	     21.49258190	      0.00000000
      7.50500000	      0.00000000	      0.00000000	      0.00000000	      0.00000000	      0.00000000	      0.00000000	      0.00000000	      0.00000000	      0.00000000	   -148.97118172	   1173.60022795	     -7.51361316	      2.38180223	      0.00000000	      0.94847663	     -0.00000000	     21.63664199	      0.00000000
      7.50600000	      0.00000000	      0.00000000	      0.00000000	      0.00000000	      0.00000000	      0.00000000	      0.00000000	      0.00000000	      0.00000000	   -149.25358336	   1183.50470774	     -7.32647977	      2.37977080	      0.00000000	      0.94861470	     -0.00000000	     21.78070208	      0.00000000
      7.50700000	      0.00000000	      0.00000000	      0.00000000	      0.00000000	      0.00000000	      0.00000000	      0.00000000	      0.00000000	      0.00000000	   -149.41965099	   1193.13835906	     -7.11023655	      2.37773346	      0.00000000	      0.94873225	     -0.00000000	     21.93099951	      0.00000000
      7.50800000	      0.00000000	      0.00000000	      0.00000000	      0.00000000	      0.00000000	      0.00000000	      0.00000000	      0.00000000	      0.00000000	   -149.35305057	   1202.23035344	     -6.83577371	      2.37568431	      0.00000000	      0.94880875	     -0.00000000	     22.09377163	      0.00000000
      7.50900000	      0.00000000	      0.00000000	      0.00000000	      0.00000000	      0.00000000	      0.00000000	      0.00000000	      0.00000000	      0.00000000	   -149.28645015	   1211.32234782	     -6.56131087	      2.37363516	      0.00000000	      0.94888524	     -0.00000000	     22.25654374	      0.00000000
      7.51000000	      0.00000000	      0.00000000	      0.00000000	      0.00000000	      0.00000000	      0.00000000	      0.00000000	      0.00000000	      0.00000000	   -149.21984973	   1220.41434220	     -6.28684802	      2.37158601	      0.00000000	      0.94896174	     -0.00000000	     22.41931585	      0.00000000
      7.51100000	      0.00000000	      0.00000000	      0.00000000	      0.00000000	      0.00000000	      0.00000000	      0.00000000	      0.00000000	      0.00000000	   -148.79536042	   1228.72913154	     -5.92834655	      2.36952174	      0.00000000	      0.94898495	     -0.00000000	     22.59920194	      0.00000000
      7.51200000	      0.00000000	      0.00000000	      0.00000000	      0.00000000	      0.00000000	      0.00000000	      0.00000000	      0.00000000	      0.00000000	   -148.37087110	   1237.04392088	     -5.56984508	      2.36745747	      0.00000000	      0.94900816	     -0.00000000	     22.77908803	      0.00000000
      7.51300000	      0.00000000	      0.00000000	      0.00000000	      0.00000000	      0.00000000	      0.00000000	      0.00000000	      0.00000000	      0.00000000	   -147.94638178	   1245.35871022	     -5.21134361	      2.36539320	      0.00000000	      0.94903137	     -0.00000000	     22.95897412	      0.00000000
      7.51400000	      0.00000000	      0.00000000	      0.00000000	      0.00000000	      0.00000000	      0.00000000	      0.00000000	      0.00000000	      0.00000000	   -147.28115272	   1253.17699345	     -4.80230813	      2.36331984	      0.00000000	      0.94902464	     -0.00000000	     23.14866782	      0.00000000
      7.51500000	      0.00000000	      0.00000000	      0.00000000	      0.00000000	      0.00000000	      0.00000000	      0.00000000	      0.00000000	      0.00000000	   -146.49555379	   1260.74702363	     -4.36800564	      2.36124194	      0.00000000	      0.94900294	     -0.00000000	     23.34326533	      0.00000000
      7.51600000	      0.00000000	      0.00000000	      0.00000000	      0.00000000	      0.00000000	      0.00000000	      0.00000000	      0.00000000	      0.00000000	   -145.70995487	   1268.31705380	     -3.93370316	      2.35916405	      0.00000000	      0.94898124	     -0.00000000	     23.53786284	      0.00000000
      7.51700000	      0.00000000	      0.00000000	      0.00000000	      0.00000000	      0.00000000	      0.00000000	      0.00000000	      0.00000000	      0.00000000	   -144.80480777	   1275.64830026	     -3.47829918	      2.35708180	      0.00000000	      0.94894731	     -0.00000000	     23.73633859	      0.00000000
      7.51800000	      0.00000000	      0.00000000	      0.00000000	      0.00000000	      0.00000000	      0.00000000	      0.00000000	      0.00000000	      0.00000000	   -143.66056436	   1282.50197927	     -2.98069222	      2.35499086	      0.00000000	      0.94888894	     -0.00000000	     23.94257082	      0.00000000
      7.51900000	      0.00000000	      0.00000000	      0.00000000	      0.00000000	      0.00000000	      0.00000000	      0.00000000	      0.00000000	      0.00000000	   -142.51632095	   1289.35565828	     -2.48308527	      2.35289992	      0.00000000	      0.94883057	     -0.00000000	     24.14880305	      0.00000000
      7.52000000	      0.00000000	      0.00000000	      0.00000000	      0.00000000	      0.00000000	      0.00000000	      0.00000000	      0.00000000	      0.00000000	   -141.37207754	   1296.20933729	     -1.98547831	      2.35080898	      0.00000000	      0.94877221	     -0.00000000	     24.35503528	      0.00000000
      7.52100000	      0.00000000	      0.00000000	      0.00000000	      0.00000000	      0.00000000	      0.00000000	      0.00000000	      0.00000000	      0.00000000	   -139.87715320	   1302.37018560	     -1.44045373	      2.34870488	      0.00000000	      0.94868511	     -0.00000000	     24.56931446	      0.00000000
      7.52200000	      0.00000000	      0.00000000	      0.00000000	      0.00000000	      0.00000000	      0.00000000	      0.00000000	      0.00000000	      0.00000000	   -138.38222886	   1308.53103391	     -0.89542914	      2.34660078	      0.00000000	      0.94859802	     -0.00000000	     24.78359365	      0.00000000
      7.52300000	      0.00000000	      0.00000000	      0.00000000	      0.00000000	      0.00000000	      0.00000000	      0.00000000	      0.00000000	      0.00000000	   -136.88730452	   1314.69188222	     -0.35040456	      2.34449668	      0.00000000	      0.94851093	     -0.00000000	     24.99787284	      0.00000000
      7.52400000	      0.00000000	      0.00000000	      0.00000000	      0.00000000	      0.00000000	      0.00000000	      0.00000000	      0.00000000	      0.00000000	   -135.16733240	   1320.40291230	      0.21403532	      2.34238341	      0.00000000	      0.94840968	     -0.00000000	     25.21490509	      0.00000000
      7.52500000	      0.00000000	      0.00000000	      0.00000000	      0.00000000	      0.00000000	      0.00000000	      0.00000000	      0.00000000	      0.00000000	   -133.33483639	   1325.88903327	      0.78818286	      2.34026554	      0.00000000	      0.94830136	     -0.00000000	     25.43331388	      0.00000000
